<svg xmlns="http://www.w3.org/2000/svg" width="32.044" height="24" viewBox="0 0 32.044 24">
  <g id="Group_77" data-name="Group 77" transform="translate(0 -64.266)">
    <path id="Path_1" data-name="Path 1" d="M18.7,180.308a4.82,4.82,0,0,1-5.356,0L.213,171.553c-.073-.049-.144-.1-.213-.151v14.345a2.949,2.949,0,0,0,2.95,2.95H29.095a2.949,2.949,0,0,0,2.95-2.95V171.4c-.07.052-.141.1-.214.152Z" transform="translate(0 -100.431)" fill="#989898"/>
    <path id="Path_2" data-name="Path 2" d="M1.255,69.56l13.131,8.754a2.942,2.942,0,0,0,3.273,0L30.79,69.56a2.811,2.811,0,0,0,1.255-2.345A2.952,2.952,0,0,0,29.1,64.266H2.949A2.953,2.953,0,0,0,0,67.216,2.811,2.811,0,0,0,1.255,69.56Z" fill="#989898"/>
  </g>
</svg>
