<svg xmlns="http://www.w3.org/2000/svg" width="50.572" height="50" viewBox="0 0 50.572 50">
  <g id="paper-plane" transform="translate(0 -2.897)">
    <path id="Path_297" data-name="Path 297" d="M190.345,2.981l-.264-.078a.793.793,0,0,0-.485.1L155.9,22.046a.615.615,0,0,0,.3,1.15h8.9l10.4,1.475,14.038,6.016a.9.9,0,0,0,1.252-.825V3.7a.8.8,0,0,0-.448-.72Z" transform="translate(-140.222 0)" fill="#b3e59f"/>
    <path id="Path_298" data-name="Path 298" d="M.8,343.517a.8.8,0,0,1-.432-1.48L8.282,337l.887-1.308-.14-.933,1.354-4.061a3.262,3.262,0,0,1,4.554-1.886,3.263,3.263,0,0,1,.292,5.67l-5.6,3.566-.039.117a2.844,2.844,0,0,0,2.7,3.743,7.221,7.221,0,0,0,5.962-3.145l8.927-13.048a.8.8,0,0,1,1.325.906l-8.927,13.048a8.825,8.825,0,0,1-7.287,3.844,4.462,4.462,0,0,1-4.454-4.324l-6.6,4.2a.8.8,0,0,1-.43.125Zm12.674-13.441a1.658,1.658,0,0,0-1.573,1.133l-.729,2.187L9.7,335.054l.726.583,3.937-2.505a1.657,1.657,0,0,0-.148-2.879A1.656,1.656,0,0,0,13.478,330.077Z" transform="translate(0 -290.62)" fill="#b3e59f"/>
    <path id="Path_299" data-name="Path 299" d="M277.082,2.988a.782.782,0,0,0-.169-.038L251.938,23.244l3.111,6.221,6.246-5.372L277.177,3.028Z" transform="translate(-227.053 -0.048)" fill="#95d6a4"/>
    <path id="Path_300" data-name="Path 300" d="M305.463,3.338,283.43,29.815l1.079,2.157a.825.825,0,0,0,1.419.1L305.558,3.378c-.025-.012-.07-.031-.1-.04Z" transform="translate(-255.435 -0.397)" fill="#78c2a4"/>
    <path id="Path_301" data-name="Path 301" d="M85.115,408.878l.747-2.24L83.714,408l-.747,2.24-.1.062Z" transform="translate(-74.685 -363.862)" fill="#95d6a4"/>
  </g>
</svg>
