<svg id="paper-plane" xmlns="http://www.w3.org/2000/svg" width="50.572" height="50" viewBox="0 0 50.572 50">
  <path id="Path_297" data-name="Path 297" d="M156.038,2.981,156.3,2.9a.793.793,0,0,1,.485.1L190.48,22.046a.615.615,0,0,1-.3,1.15h-8.9l-10.4,1.475-14.038,6.016a.9.9,0,0,1-1.252-.825V3.7a.8.8,0,0,1,.448-.72Z" transform="translate(-155.59 -2.897)" fill="#b3e59f"/>
  <path id="Path_298" data-name="Path 298" d="M27.836,343.517a.8.8,0,0,0,.432-1.48L20.358,337l-.887-1.308.14-.933L18.257,330.7a3.262,3.262,0,0,0-4.554-1.886,3.263,3.263,0,0,0-.292,5.67l5.6,3.566.039.117a2.844,2.844,0,0,1-2.7,3.743,7.221,7.221,0,0,1-5.962-3.145L1.465,325.719a.8.8,0,0,0-1.325.906l8.927,13.048a8.825,8.825,0,0,0,7.287,3.844,4.462,4.462,0,0,0,4.454-4.324l6.6,4.2a.8.8,0,0,0,.43.125ZM15.162,330.077a1.658,1.658,0,0,1,1.573,1.133l.729,2.187,1.472,1.657-.726.583-3.937-2.505a1.657,1.657,0,0,1,.148-2.879A1.656,1.656,0,0,1,15.162,330.077Z" transform="translate(21.932 -293.517)" fill="#b3e59f"/>
  <path id="Path_299" data-name="Path 299" d="M252.034,2.988a.782.782,0,0,1,.169-.038l24.975,20.294-3.111,6.221-6.246-5.372L251.938,3.028Z" transform="translate(-251.49 -2.945)" fill="#95d6a4"/>
  <path id="Path_300" data-name="Path 300" d="M283.526,3.338l22.033,26.477-1.079,2.157a.825.825,0,0,1-1.419.1L283.43,3.378c.025-.012.07-.031.1-.04Z" transform="translate(-282.982 -3.294)" fill="#78c2a4"/>
  <path id="Path_301" data-name="Path 301" d="M83.617,408.878l-.747-2.24L85.018,408l.747,2.24.1.062Z" transform="translate(-43.475 -366.759)" fill="#95d6a4"/>
</svg>
