<svg xmlns="http://www.w3.org/2000/svg" width="26" height="26" viewBox="0 0 26 26">
    <defs>
        <filter id="a" x="0" y="0" width="26" height="26" filterUnits="userSpaceOnUse">
            <feOffset dy="1"/>
            <feGaussianBlur stdDeviation="1" result="blur"/>
            <feFlood flood-color="#4d4d4d" flood-opacity=".302"/>
            <feComposite operator="in" in2="blur"/>
            <feComposite in="SourceGraphic"/>
        </filter>
    </defs>
    <g style="filter:url(#a)">
        <path data-name="whatsapp" d="M10 0A10.039 10.039 0 0 0 0 10a9.933 9.933 0 0 0 1.416 5.121L0 20l4.879-1.416A9.933 9.933 0 0 0 10 20a10 10 0 0 0 0-20zm6.252 14.225-.465.465c-.658.658-2.172.606-3.145.418-3.234-.625-7.005-4.28-7.733-7.445-.36-1.568-.161-2.931.359-3.451l.465-.465a.659.659 0 0 1 .93 0l1.862 1.862a.658.658 0 0 1 0 .93L8.06 7a1.319 1.319 0 0 0 0 1.861l3.074 3.039a1.315 1.315 0 0 0 1.866 0l.465-.465a.688.688 0 0 1 .931 0l1.861 1.861a.657.657 0 0 1-.005.929zm0 0" transform="translate(3 2)" style="fill:#a9c1af"/>
    </g>
</svg>
