<svg xmlns="http://www.w3.org/2000/svg" width="28.456" height="28.456" viewBox="0 0 28.456 28.456">
    <defs>
        <filter id="a" x="0" y="0" width="28.456" height="28.456" filterUnits="userSpaceOnUse">
            <feOffset dy="1"/>
            <feGaussianBlur stdDeviation=".5" result="blur"/>
            <feFlood flood-color="#4d4d4d" flood-opacity=".302"/>
            <feComposite operator="in" in2="blur"/>
            <feComposite in="SourceGraphic"/>
        </filter>
    </defs>
    <g style="filter:url(#a)">
        <path data-name="phone-call" d="M18.421 13.96c-.049-.039-3.621-2.614-4.6-2.429-.468.083-.736.4-1.273 1.041-.086.1-.294.35-.455.526a7.51 7.51 0 0 1-.991-.4A8.22 8.22 0 0 1 7.308 8.9a7.475 7.475 0 0 1-.4-.991c.176-.162.424-.37.529-.458.636-.534.956-.8 1.039-1.271.17-.972-2.4-4.568-2.43-4.6A1.373 1.373 0 0 0 5.02 1C3.977 1 1 4.862 1 5.513c0 .038.055 3.88 4.793 8.7C10.608 18.945 14.45 19 14.487 19 15.138 19 19 16.023 19 14.98a1.37 1.37 0 0 0-.579-1.02z" transform="rotate(45 8.213 16.722)" style="fill:#19832b"/>
    </g>
</svg>
