<svg xmlns="http://www.w3.org/2000/svg" width="10.788" height="20" viewBox="0 0 10.788 20">
    <path d="M31.4 21.389h-2.474c-.4 0-.526-.15-.526-.526v-3.028c0-.4.15-.526.526-.526H31.4v-2.2a5.56 5.56 0 0 1 .676-2.829 4.153 4.153 0 0 1 2.228-1.852 5.569 5.569 0 0 1 1.927-.325h2.453c.35 0 .5.15.5.5v2.854c0 .35-.15.5-.5.5-.676 0-1.352 0-2.028.025a.9.9 0 0 0-1.026 1.026c-.025.751 0 1.477 0 2.253h2.9c.4 0 .551.15.551.551v3.029c0 .4-.125.526-.551.526h-2.9v8.16c0 .426-.125.576-.576.576h-3.125c-.375 0-.526-.15-.526-.526v-8.188z" transform="translate(-28.4 -10.1)" style="fill:#ad0002"/>
</svg>
