<svg xmlns="http://www.w3.org/2000/svg" width="32.044" height="24" viewBox="0 0 32.044 24">
    <defs>
        <style>
            .cls-1{fill:#fff}
        </style>
    </defs>
    <g id="email" transform="translate(0 -64.266)">
        <path id="Path_1" data-name="Path 1" class="cls-1" d="M18.7 180.308a4.82 4.82 0 0 1-5.356 0L.213 171.553a5.76 5.76 0 0 1-.213-.151v14.345a2.949 2.949 0 0 0 2.95 2.95h26.145a2.949 2.949 0 0 0 2.95-2.95V171.4c-.07.052-.141.1-.214.152z" transform="translate(0 -100.431)"/>
        <path id="Path_2" data-name="Path 2" class="cls-1" d="m1.255 69.56 13.131 8.754a2.942 2.942 0 0 0 3.273 0L30.79 69.56a2.811 2.811 0 0 0 1.255-2.345 2.952 2.952 0 0 0-2.945-2.949H2.949A2.953 2.953 0 0 0 0 67.216a2.811 2.811 0 0 0 1.255 2.344z"/>
    </g>
</svg>
